<?xml version="1.0" standalone="no"?><!DOCTYPE svg PUBLIC "-//W3C//DTD SVG 1.1//EN" "http://www.w3.org/Graphics/SVG/1.1/DTD/svg11.dtd"><svg t="1692170938485" class="icon" viewBox="0 0 1024 1024" version="1.1" xmlns="http://www.w3.org/2000/svg" p-id="4019" xmlns:xlink="http://www.w3.org/1999/xlink" width="128" height="128"><path d="M908.474 381.92c-1.767 7.47-6.128 18.419-12.246 31.624h0.132l-0.7 1.223c-35.695 76.492-128.894 226.512-128.894 226.512s-0.119-0.354-0.486-0.938l-27.235 47.485h131.254L619.61 1021.705l56.903-227.129H573.236l35.886-150.19c-29.033 7.011-63.35 16.654-103.993 29.74 0 0-54.982 32.249-158.382-62.037 0 0-69.736-61.533-29.304-76.909 17.196-6.538 83.49-14.832 135.645-21.894 70.487-9.543 113.848-14.596 113.848-14.596s-217.316 3.255-268.87-4.866c-51.557-8.12-116.959-94.275-130.89-170.019 0 0-21.547-41.58 46.334-21.894s348.855 76.632 348.855 76.632-365.423-112.204-389.74-139.578c-24.312-27.374-71.557-149.423-65.41-224.42 0 0 2.665-18.698 21.804-13.687 0 0 270.149 123.64 454.875 191.323 184.724 67.683 345.33 102.108 324.58 189.739z" fill="#007FFF" p-id="4020"></path></svg>